<?xml version="1.0" standalone="no"?>
<!DOCTYPE svg PUBLIC "-//W3C//DTD SVG 20010904//EN"
 "http://www.w3.org/TR/2001/REC-SVG-20010904/DTD/svg10.dtd">
<svg version="1.0" xmlns="http://www.w3.org/2000/svg"
 width="24" height="24" viewBox="0 0 24 24"
 preserveAspectRatio="xMidYMid meet">

<g transform="translate(0.000000,512.000000) scale(0.100000,-0.100000)"
fill="#000000" stroke="none">
<path d="M1174 5109 c-81 -23 -176 -119 -206 -207 -16 -48 -24 -4602 -8 -4691
19 -108 98 -140 211 -84 44 22 171 143 719 689 l665 663 660 -658 c707 -705
714 -711 811 -711 56 0 86 15 110 53 19 31 19 86 22 2312 2 1506 -1 2306 -7
2357 -6 43 -20 96 -31 118 -27 52 -87 113 -142 142 l-43 23 -1365 2 c-804 1
-1378 -2 -1396 -8z m2584 -329 c18 -11 41 -34 52 -52 20 -33 20 -55 20 -1998
0 -2189 6 -2010 -68 -2010 -35 0 -61 24 -617 580 -319 319 -585 580 -590 580
-5 0 -271 -261 -590 -580 -540 -539 -583 -580 -614 -580 -19 0 -43 7 -53 17
-17 15 -18 90 -18 1987 0 1949 0 1971 20 2004 11 18 34 41 52 52 32 20 53 20
1203 20 1150 0 1171 0 1203 -20z"/>
<path d="M2512 3992 c-9 -9 -64 -151 -121 -313 l-104 -296 -66 -7 c-36 -3
-123 -6 -192 -6 -69 0 -188 -3 -264 -7 -150 -7 -175 -16 -175 -67 0 -31 26
-53 298 -260 122 -93 222 -175 222 -183 0 -7 -39 -143 -86 -301 -47 -158 -88
-297 -91 -309 -7 -30 40 -77 70 -71 12 3 140 86 285 186 145 100 265 182 267
182 2 0 122 -82 267 -181 145 -100 271 -184 280 -187 22 -6 65 21 72 46 4 11
-30 143 -79 304 -46 156 -87 297 -90 313 -6 29 1 36 243 220 138 105 256 200
262 212 16 27 6 69 -19 82 -10 6 -163 15 -340 20 -177 5 -323 10 -325 12 -2 2
-50 137 -107 299 -57 162 -111 302 -121 312 -23 23 -63 23 -86 0z m117 -589
l66 -188 180 -7 c99 -4 193 -9 209 -10 27 -3 15 -14 -132 -127 -89 -67 -162
-130 -162 -138 0 -7 25 -96 55 -197 30 -100 55 -186 55 -190 0 -4 -35 17 -77
47 -43 29 -121 83 -173 119 l-95 66 -170 -118 c-93 -65 -171 -117 -173 -115
-2 1 22 86 52 187 31 101 56 192 56 201 0 9 -68 68 -161 139 l-162 123 99 6
c55 4 149 7 209 8 l110 1 27 78 c74 213 111 312 116 308 2 -3 35 -90 71 -193z"/>
</g>
</svg>
