<svg version="1.0" xmlns="http://www.w3.org/2000/svg"
 width="24" height="24" viewBox="0 0 24 24">

<path d="M730 2560 l0 -2560 48 19 c1691 672 1726 685 1782 685 56 0 91 -13
1783 -685 l47 -19 0 2560 0 2560 -1830 0 -1830 0 0 -2560z m1917 911 c25 -12
52 -35 66 -58 14 -21 59 -145 101 -275 l76 -237 273 -3 c269 -3 273 -3 317
-28 99 -56 127 -193 55 -278 -13 -16 -113 -93 -222 -172 -109 -79 -202 -146
-206 -150 -5 -4 26 -114 68 -244 43 -131 79 -255 82 -276 10 -70 -34 -153 -99
-186 -40 -21 -126 -21 -166 0 -17 9 -121 82 -232 162 l-200 146 -32 -23 c-18
-13 -109 -79 -203 -147 -93 -68 -183 -131 -198 -139 -37 -19 -127 -19 -165 1
-65 33 -109 116 -99 186 3 21 39 145 82 276 42 130 73 240 68 244 -4 4 -97 71
-206 150 -109 79 -209 156 -222 172 -72 85 -44 222 55 278 44 25 48 25 317 28
l272 3 77 237 c41 130 87 254 100 275 30 46 91 77 154 77 25 0 64 -9 87 -19z" fill="none">/>
<path d="M2465 2980 l-90 -280 -304 -2 -304 -3 241 -175 c133 -96 242 -182
242 -190 0 -8 -40 -136 -89 -285 -49 -148 -87 -271 -86 -273 2 -2 111 75 244
172 l240 175 242 -175 c132 -97 242 -174 244 -172 1 2 -39 130 -90 285 l-92
282 245 178 246 178 -305 3 -304 2 -90 280 c-49 154 -92 280 -95 280 -3 0 -46
-126 -95 -280z"/>
</svg>
